<svg width="543" height="105" viewBox="0 0 543 105" fill="none" xmlns="http://www.w3.org/2000/svg">
<path d="M0 10C0 4.47715 4.47715 0 10 0H437V105H10C4.47715 105 0 100.523 0 95V10Z" fill="#082032"/>
<path d="M437 0H533C538.523 0 543 4.47715 543 10V95C543 100.523 538.523 105 533 105H437V0Z" fill="#FF4C29"/>
<path d="M97.5981 89C95.9021 89 95.0541 88.152 95.0541 86.456V29.672C95.0541 27.976 95.9021 27.128 97.5981 27.128C99.2621 27.128 100.094 27.976 100.094 29.672V83.96H129.278C130.974 83.96 131.822 84.792 131.822 86.456C131.822 88.152 130.974 89 129.278 89H97.5981ZM144.494 34.904C142.286 34.904 141.182 33.768 141.182 31.496V29.336C141.182 27.128 142.286 26.024 144.494 26.024H146.654C148.798 26.024 149.87 27.128 149.87 29.336V31.496C149.87 33.768 148.798 34.904 146.654 34.904H144.494ZM145.598 89C143.902 89 143.054 88.152 143.054 86.456V46.136C143.054 44.472 143.902 43.64 145.598 43.64C147.262 43.64 148.094 44.472 148.094 46.136V86.456C148.094 88.152 147.262 89 145.598 89ZM183.447 87.08C183.095 87.848 182.663 88.36 182.151 88.616C181.639 88.872 181.047 89 180.375 89C178.967 89 177.975 88.344 177.399 87.032L159.591 47.144C158.919 45.576 159.383 44.488 160.983 43.88C162.487 43.24 163.575 43.688 164.247 45.224L182.007 84.968H178.935L197.847 45.176C198.199 44.44 198.663 43.96 199.239 43.736C199.815 43.512 200.471 43.56 201.207 43.88C202.775 44.584 203.207 45.704 202.503 47.24L183.447 87.08ZM216.661 89C214.965 89 214.117 88.152 214.117 86.456V46.136C214.117 44.472 214.965 43.64 216.661 43.64C218.325 43.64 219.157 44.472 219.157 46.136V53.528C220.821 50.328 223.221 47.88 226.357 46.184C229.525 44.488 233.269 43.64 237.589 43.64C239.285 43.64 240.133 44.472 240.133 46.136C240.133 47.832 239.285 48.68 237.589 48.68C231.893 48.68 227.477 49.976 224.341 52.568C221.205 55.128 219.477 58.792 219.157 63.56V86.456C219.157 88.152 218.325 89 216.661 89ZM264.461 89C258.477 89 254.093 87.624 251.309 84.872C248.525 82.088 247.133 77.72 247.133 71.768V60.92C247.133 54.872 248.525 50.472 251.309 47.72C254.093 44.936 258.477 43.576 264.461 43.64H272.333C278.317 43.64 282.685 45.032 285.437 47.816C288.221 50.568 289.613 54.936 289.613 60.92V71.672C289.613 77.656 288.221 82.04 285.437 84.824C282.685 87.608 278.317 89 272.333 89H264.461ZM252.173 71.768C252.173 76.28 253.069 79.448 254.861 81.272C256.685 83.064 259.885 83.96 264.461 83.96H272.333C276.909 83.96 280.093 83.064 281.885 81.272C283.677 79.448 284.573 76.248 284.573 71.672V60.92C284.573 56.344 283.677 53.16 281.885 51.368C280.093 49.576 276.909 48.68 272.333 48.68H264.461C261.389 48.648 258.957 49.016 257.165 49.784C255.373 50.552 254.093 51.832 253.325 53.624C252.557 55.416 252.173 57.848 252.173 60.92V71.768ZM316.209 88.904C312.273 88.904 309.265 88.072 307.185 86.408C305.105 84.712 303.857 82.136 303.441 78.68C303.345 77.848 303.521 77.208 303.969 76.76C304.417 76.28 305.073 76.04 305.937 76.04C306.737 76.04 307.329 76.248 307.713 76.664C308.129 77.08 308.401 77.704 308.529 78.536C308.817 80.52 309.537 81.912 310.689 82.712C311.873 83.48 313.713 83.864 316.209 83.864H331.953C334.929 83.864 336.977 83.304 338.097 82.184C339.217 81.064 339.777 79.016 339.777 76.04C339.777 73.032 339.217 70.968 338.097 69.848C336.977 68.728 334.929 68.168 331.953 68.168H316.401C312.241 68.168 309.137 67.176 307.089 65.192C305.073 63.176 304.065 60.088 304.065 55.928C304.065 51.672 305.073 48.552 307.089 46.568C309.105 44.552 312.209 43.544 316.401 43.544H331.473C338.705 43.544 342.721 46.744 343.521 53.144C343.649 53.976 343.473 54.632 342.993 55.112C342.545 55.56 341.905 55.784 341.073 55.784C340.273 55.784 339.665 55.576 339.249 55.16C338.865 54.744 338.593 54.136 338.433 53.336C338.209 51.544 337.553 50.312 336.465 49.64C335.409 48.936 333.745 48.584 331.473 48.584H316.401C313.617 48.584 311.697 49.096 310.641 50.12C309.617 51.144 309.105 53.08 309.105 55.928C309.105 58.648 309.633 60.536 310.689 61.592C311.745 62.616 313.649 63.128 316.401 63.128H331.953C336.369 63.128 339.617 64.184 341.697 66.296C343.777 68.376 344.817 71.624 344.817 76.04C344.817 80.424 343.777 83.672 341.697 85.784C339.617 87.864 336.369 88.904 331.953 88.904H316.209Z" fill="white"/>
<path d="M523.444 36.9125C523.444 36.6687 523.688 36.425 523.688 36.1813C523.688 36.1813 523.688 36.1813 523.688 35.9375C523.688 35.9375 523.688 35.9375 523.688 35.6937C523.688 35.45 523.688 35.2063 523.688 34.9625C523.688 34.9625 523.688 34.9625 523.688 34.7188C523.688 34.475 523.444 34.2313 523.444 33.9875C523.2 33.7438 523.2 33.7438 522.956 33.5L496.144 16.4375C495.413 15.95 494.194 15.95 493.463 16.4375L461.775 38.375L461.531 38.6188C461.531 38.6188 461.531 38.6188 461.288 38.6188C461.044 38.8625 461.044 39.1062 460.8 39.35C460.8 39.35 460.8 39.35 460.8 39.5938C460.313 40.325 460.312 40.5688 460.312 40.8125V55.4375V70.0625C460.312 70.7938 460.8 71.7687 461.531 72.0125L488.344 89.075C488.831 89.3187 489.319 89.5625 489.562 89.5625C490.05 89.5625 490.538 89.3187 491.025 89.075L522.713 67.1375C523.2 66.65 523.688 66.1625 523.688 65.4313C523.688 64.7 523.444 63.9687 522.956 63.4812C520.763 61.2875 520.275 58.1187 521.738 55.1937L523.444 51.5375C523.444 51.2937 523.688 51.05 523.688 50.8063V50.5625C523.688 50.3188 523.687 49.8313 523.444 49.5875V49.3438C523.444 49.1 523.2 48.8563 522.956 48.6125C520.763 46.4188 520.275 43.25 521.738 40.325L523.444 36.9125ZM517.838 50.075L489.562 69.575L465.188 54.2188V45.4437L488.344 60.0687C488.831 60.3125 489.319 60.5563 489.562 60.5563C490.05 60.5563 490.538 60.3125 491.025 60.0687L516.131 42.7625C515.887 45.2 516.375 47.6375 517.838 50.075ZM489.562 84.2L465.188 68.8438V60.0687L488.344 74.6937C488.831 74.9375 489.319 75.1813 489.562 75.1813C490.05 75.1813 490.538 74.9375 491.025 74.6937L516.131 57.3875C515.887 60.0687 516.375 62.75 517.838 64.9437L489.562 84.2Z" fill="white"/>
</svg>
