<svg width="543" height="105" viewBox="0 0 543 105" fill="none" xmlns="http://www.w3.org/2000/svg">
<path d="M0 10C0 4.47715 4.47715 0 10 0H437V105H10C4.47715 105 0 100.523 0 95V10Z" fill="#082032"/>
<path d="M437 0H533C538.523 0 543 4.47715 543 10V95C543 100.523 538.523 105 533 105H437V0Z" fill="#FF4C29"/>
<path d="M84.8013 88C83.1053 88 82.2573 87.152 82.2573 85.456V28.672C82.2573 26.976 83.1053 26.128 84.8013 26.128H119.409C120.209 26.128 120.817 26.352 121.233 26.8C121.681 27.216 121.905 27.84 121.905 28.672C121.905 30.336 121.073 31.168 119.409 31.168H87.2973V54.16H109.185C110.881 54.16 111.729 54.992 111.729 56.656C111.729 58.352 110.881 59.2 109.185 59.2H87.2973V85.456C87.2973 87.152 86.4653 88 84.8013 88ZM132.354 33.904C130.146 33.904 129.042 32.768 129.042 30.496V28.336C129.042 26.128 130.146 25.024 132.354 25.024H134.514C136.658 25.024 137.73 26.128 137.73 28.336V30.496C137.73 32.768 136.658 33.904 134.514 33.904H132.354ZM133.458 88C131.762 88 130.914 87.152 130.914 85.456V45.136C130.914 43.472 131.762 42.64 133.458 42.64C135.122 42.64 135.954 43.472 135.954 45.136V85.456C135.954 87.152 135.122 88 133.458 88ZM167.082 88C162.538 88 159.194 86.944 157.05 84.832C154.938 82.72 153.882 79.408 153.882 74.896V23.92C153.882 22.256 154.73 21.424 156.426 21.424C158.09 21.424 158.922 22.256 158.922 23.92V74.896C158.922 78 159.498 80.128 160.65 81.28C161.802 82.4 163.93 82.96 167.034 82.96C168.762 82.96 169.626 83.792 169.626 85.456C169.658 87.152 168.81 88 167.082 88ZM229.746 42.544C234.898 42.544 238.578 43.856 240.786 46.48C243.026 49.104 244.146 53.44 244.146 59.488V85.552C244.146 87.216 243.314 88.048 241.65 88.048C239.954 88.048 239.106 87.216 239.106 85.552V59.488C239.106 55.264 238.386 52.224 236.946 50.368C235.506 48.512 233.106 47.584 229.746 47.584H225.762C221.57 47.584 218.562 48.512 216.738 50.368C214.946 52.224 214.05 55.264 214.05 59.488V85.552C214.05 87.216 213.218 88.048 211.554 88.048C209.858 88.048 209.01 87.216 209.01 85.552V59.488C209.01 55.264 208.29 52.224 206.85 50.368C205.41 48.512 203.01 47.584 199.65 47.584H195.666C191.474 47.584 188.466 48.512 186.642 50.368C184.85 52.224 183.954 55.264 183.954 59.488V85.552C183.954 87.216 183.122 88.048 181.458 88.048C179.762 88.048 178.914 87.216 178.914 85.552V45.136C178.914 43.472 179.762 42.64 181.458 42.64C183.122 42.64 183.954 43.472 183.954 45.136V48.88C185.362 46.608 187.026 44.992 188.946 44.032C190.898 43.04 193.362 42.544 196.338 42.544H199.65C203.01 42.544 205.698 43.136 207.714 44.32C209.762 45.472 211.378 47.376 212.562 50.032C213.97 47.376 215.698 45.472 217.746 44.32C219.794 43.136 222.466 42.544 225.762 42.544H229.746ZM264.97 67.264V70.768C264.97 75.28 265.866 78.448 267.658 80.272C269.482 82.064 272.682 82.96 277.258 82.96H285.13C289.162 82.96 292.09 82.448 293.914 81.424C295.77 80.368 296.874 78.56 297.226 76C297.354 75.2 297.61 74.592 297.994 74.176C298.41 73.76 299.034 73.552 299.866 73.552C300.698 73.552 301.322 73.792 301.738 74.272C302.186 74.72 302.362 75.36 302.266 76.192C301.85 80.224 300.234 83.2 297.418 85.12C294.602 87.04 290.506 88 285.13 88H277.258C271.274 88 266.89 86.624 264.106 83.872C261.322 81.088 259.93 76.72 259.93 70.768V59.92C259.93 53.872 261.322 49.472 264.106 46.72C266.89 43.936 271.274 42.576 277.258 42.64H285.13C291.114 42.64 295.482 44.032 298.234 46.816C301.018 49.568 302.41 53.936 302.41 59.92V64.72C302.41 66.416 301.578 67.264 299.914 67.264H264.97ZM277.258 47.68C272.682 47.616 269.482 48.496 267.658 50.32C265.866 52.112 264.97 55.312 264.97 59.92V62.224H297.37V59.92C297.37 55.344 296.474 52.16 294.682 50.368C292.89 48.576 289.706 47.68 285.13 47.68H277.258ZM329.006 87.904C325.07 87.904 322.062 87.072 319.982 85.408C317.902 83.712 316.654 81.136 316.238 77.68C316.142 76.848 316.318 76.208 316.766 75.76C317.214 75.28 317.87 75.04 318.734 75.04C319.534 75.04 320.126 75.248 320.51 75.664C320.926 76.08 321.198 76.704 321.326 77.536C321.614 79.52 322.334 80.912 323.486 81.712C324.67 82.48 326.51 82.864 329.006 82.864H344.75C347.726 82.864 349.774 82.304 350.894 81.184C352.014 80.064 352.574 78.016 352.574 75.04C352.574 72.032 352.014 69.968 350.894 68.848C349.774 67.728 347.726 67.168 344.75 67.168H329.198C325.038 67.168 321.934 66.176 319.886 64.192C317.87 62.176 316.862 59.088 316.862 54.928C316.862 50.672 317.87 47.552 319.886 45.568C321.902 43.552 325.006 42.544 329.198 42.544H344.27C351.502 42.544 355.518 45.744 356.318 52.144C356.446 52.976 356.27 53.632 355.79 54.112C355.342 54.56 354.702 54.784 353.87 54.784C353.07 54.784 352.462 54.576 352.046 54.16C351.662 53.744 351.39 53.136 351.23 52.336C351.006 50.544 350.35 49.312 349.262 48.64C348.206 47.936 346.542 47.584 344.27 47.584H329.198C326.414 47.584 324.494 48.096 323.438 49.12C322.414 50.144 321.902 52.08 321.902 54.928C321.902 57.648 322.43 59.536 323.486 60.592C324.542 61.616 326.446 62.128 329.198 62.128H344.75C349.166 62.128 352.414 63.184 354.494 65.296C356.574 67.376 357.614 70.624 357.614 75.04C357.614 79.424 356.574 82.672 354.494 84.784C352.414 86.864 349.166 87.904 344.75 87.904H329.006Z" fill="white"/>
<g clip-path="url(#clip0_5_401)">
<path fill-rule="evenodd" clip-rule="evenodd" d="M510.875 23.5556V27.1111H503.75V23.5556C503.75 21.6 502.147 20 500.188 20H478.812C476.853 20 475.25 21.6 475.25 23.5556V27.1111H468.125V23.5556C468.125 21.6 466.522 20 464.562 20C462.603 20 461 21.6 461 23.5556V80.4444C461 82.4 462.603 84 464.562 84C466.522 84 468.125 82.4 468.125 80.4444V76.8889H475.25V80.4444C475.25 82.4 476.853 84 478.812 84H500.188C502.147 84 503.75 82.4 503.75 80.4444V76.8889H510.875V80.4444C510.875 82.4 512.478 84 514.438 84C516.397 84 518 82.4 518 80.4444V23.5556C518 21.6 516.397 20 514.438 20C512.478 20 510.875 21.6 510.875 23.5556ZM475.25 69.7778H468.125V62.6667H475.25V69.7778ZM475.25 55.5556H468.125V48.4444H475.25V55.5556ZM475.25 41.3333H468.125V34.2222H475.25V41.3333ZM510.875 69.7778H503.75V62.6667H510.875V69.7778ZM510.875 55.5556H503.75V48.4444H510.875V55.5556ZM510.875 41.3333H503.75V34.2222H510.875V41.3333Z" fill="white"/>
</g>
<defs>
<clipPath id="clip0_5_401">
<rect width="57" height="64" fill="white" transform="translate(461 20)"/>
</clipPath>
</defs>
</svg>
