<svg width="543" height="105" viewBox="0 0 543 105" fill="none" xmlns="http://www.w3.org/2000/svg">
<path d="M0 10C0 4.47715 4.47715 0 10 0H437V105H10C4.47715 105 0 100.523 0 95V10Z" fill="#082032"/>
<path d="M437 0H533C538.523 0 543 4.47715 543 10V95C543 100.523 538.523 105 533 105H437V0Z" fill="#FF4C29"/>
<path d="M95.2218 87.76C93.6858 87.088 93.2218 85.968 93.8298 84.4L117.638 28.096C118.15 26.784 119.094 26.128 120.47 26.128H120.758C122.07 26.16 122.998 26.816 123.542 28.096L147.35 84.4C147.99 85.968 147.542 87.088 146.006 87.76C144.438 88.4 143.35 87.952 142.742 86.416L136.358 71.296H104.918L98.5338 86.416C97.8938 87.952 96.7898 88.4 95.2218 87.76ZM106.982 66.256H134.246L120.614 34.096L106.982 66.256ZM195.276 42.64C196.972 42.64 197.82 43.472 197.82 45.136V85.456C197.82 87.152 196.972 88 195.276 88C193.612 88 192.78 87.152 192.78 85.456V80.896C189.74 85.632 184.236 88 176.268 88H173.58C167.596 88 163.212 86.608 160.428 83.824C157.676 81.04 156.3 76.656 156.3 70.672V45.136C156.3 43.472 157.132 42.64 158.796 42.64C160.492 42.64 161.34 43.472 161.34 45.136V70.672C161.34 75.248 162.236 78.448 164.028 80.272C165.852 82.064 169.036 82.96 173.58 82.96H176.268C181.228 82.96 185.132 82.16 187.98 80.56C190.828 78.96 192.428 76.512 192.78 73.216V45.136C192.78 43.472 193.612 42.64 195.276 42.64ZM231.789 88C225.805 88 221.421 86.608 218.637 83.824C215.853 81.04 214.461 76.656 214.461 70.672V59.92C214.461 53.936 215.853 49.568 218.637 46.816C221.421 44.032 225.805 42.64 231.789 42.64H251.901V23.92C251.901 22.256 252.749 21.424 254.445 21.424C256.109 21.424 256.941 22.256 256.941 23.92V85.456C256.941 87.152 256.109 88 254.445 88C252.749 88 251.901 87.152 251.901 85.456V81.328C250.525 83.536 248.509 85.2 245.853 86.32C243.197 87.44 239.725 88 235.437 88H231.789ZM231.789 82.96H235.437C240.429 82.96 244.413 82.176 247.389 80.608C250.397 79.008 251.901 76.624 251.901 73.456V47.68H231.789C227.213 47.68 224.013 48.592 222.189 50.416C220.397 52.208 219.501 55.376 219.501 59.92V70.672C219.501 75.248 220.397 78.448 222.189 80.272C224.013 82.064 227.213 82.96 231.789 82.96ZM275.51 33.904C273.302 33.904 272.198 32.768 272.198 30.496V28.336C272.198 26.128 273.302 25.024 275.51 25.024H277.67C279.814 25.024 280.886 26.128 280.886 28.336V30.496C280.886 32.768 279.814 33.904 277.67 33.904H275.51ZM276.614 88C274.918 88 274.07 87.152 274.07 85.456V45.136C274.07 43.472 274.918 42.64 276.614 42.64C278.278 42.64 279.11 43.472 279.11 45.136V85.456C279.11 87.152 278.278 88 276.614 88ZM313.071 88C307.087 88 302.703 86.624 299.919 83.872C297.135 81.088 295.743 76.72 295.743 70.768V59.92C295.743 53.872 297.135 49.472 299.919 46.72C302.703 43.936 307.087 42.576 313.071 42.64H320.943C326.927 42.64 331.295 44.032 334.047 46.816C336.831 49.568 338.223 53.936 338.223 59.92V70.672C338.223 76.656 336.831 81.04 334.047 83.824C331.295 86.608 326.927 88 320.943 88H313.071ZM300.783 70.768C300.783 75.28 301.679 78.448 303.471 80.272C305.295 82.064 308.495 82.96 313.071 82.96H320.943C325.519 82.96 328.703 82.064 330.495 80.272C332.287 78.448 333.183 75.248 333.183 70.672V59.92C333.183 55.344 332.287 52.16 330.495 50.368C328.703 48.576 325.519 47.68 320.943 47.68H313.071C309.999 47.648 307.567 48.016 305.775 48.784C303.983 49.552 302.703 50.832 301.935 52.624C301.167 54.416 300.783 56.848 300.783 59.92V70.768Z" fill="white"/>
<path d="M458.3 74.6333V52.5C458.3 34.24 473.24 19.3 491.5 19.3C509.76 19.3 524.7 34.24 524.7 52.5V74.6333" stroke="white" stroke-width="8" stroke-miterlimit="10" stroke-linecap="round" stroke-linejoin="round"/>
<path d="M472.133 52.7767C471.303 52.5 470.197 52.5 469.367 52.5C460.237 52.5 452.767 59.97 452.767 69.1C452.767 78.23 460.237 85.7 469.367 85.7C470.197 85.7 471.303 85.7 472.133 85.4233V52.7767Z" fill="white" stroke="white" stroke-width="2" stroke-miterlimit="10" stroke-linecap="round" stroke-linejoin="round"/>
<path d="M510.867 52.7767C511.697 52.5 512.803 52.5 513.633 52.5C522.763 52.5 530.233 59.97 530.233 69.1C530.233 78.23 522.763 85.7 513.633 85.7C512.803 85.7 511.697 85.7 510.867 85.4233V52.7767Z" fill="white" stroke="white" stroke-width="2" stroke-miterlimit="10" stroke-linecap="round" stroke-linejoin="round"/>
</svg>
