<svg width="543" height="105" viewBox="0 0 543 105" fill="none" xmlns="http://www.w3.org/2000/svg">
<path d="M0 10C0 4.47715 4.47715 0 10 0H437V105H10C4.47715 105 0 100.523 0 95V10Z" fill="#082032"/>
<path d="M437 0H533C538.523 0 543 4.47715 543 10V95C543 100.523 538.523 105 533 105H437V0Z" fill="#FF4C29"/>
<path fill-rule="evenodd" clip-rule="evenodd" d="M459.192 38.3479H481.985C481.985 38.2198 482.001 38.0965 482.027 37.9732L476.975 29.8331C475.367 29.9975 473.959 28.8446 473.959 27.3316C473.959 25.9395 475.172 24.8132 476.666 24.8132C478.16 24.8132 479.374 25.9395 479.374 27.3316C479.374 27.8924 479.176 28.412 478.841 28.8301L483.539 36.3974C484.737 35.9165 490.593 35.8198 491.955 36.6488L511.04 21.2725C510.5 19.6652 511.783 18 513.623 18C515.117 18 516.33 19.1287 516.33 20.5184C516.33 22.3867 514.223 23.583 512.454 22.7879L493.142 38.343H515.808C519.215 38.343 522 40.9339 522 44.1025V81.2405C522 84.4091 519.215 87 515.808 87H459.192C455.785 87 453 84.4091 453 81.2405V44.1025C453 40.9339 455.785 38.343 459.192 38.343V38.3479ZM502.733 81.0762H504.24C504.713 81.0762 505.1 81.4363 505.1 81.8762V83.278C505.1 83.7179 504.713 84.078 504.24 84.078H502.733C502.26 84.078 501.873 83.7179 501.873 83.278V81.8762C501.873 81.4363 502.26 81.0762 502.733 81.0762ZM496.375 81.0762H497.882C498.355 81.0762 498.742 81.4363 498.742 81.8762V83.278C498.742 83.7179 498.355 84.078 497.882 84.078H496.375C495.902 84.078 495.515 83.7179 495.515 83.278V81.8762C495.515 81.4363 495.902 81.0762 496.375 81.0762ZM467.634 42.5436H507.366C512.196 42.5436 516.148 46.2173 516.148 50.7127V71.0751C516.148 75.5681 512.196 79.2442 507.366 79.2442H467.634C462.804 79.2442 458.852 75.5705 458.852 71.0751V50.7127C458.852 46.2197 462.801 42.5436 467.634 42.5436V42.5436Z" fill="white"/>
<path d="M97.3484 87.904C91.6204 87.904 87.3644 86.64 84.5804 84.112C81.8284 81.552 80.3564 77.536 80.1644 72.064C80.1324 71.296 80.3404 70.688 80.7884 70.24C81.2684 69.76 81.8924 69.52 82.6604 69.52C83.4284 69.52 84.0364 69.744 84.4844 70.192C84.9324 70.64 85.1884 71.248 85.2524 72.016C85.3804 76.048 86.3404 78.864 88.1324 80.464C89.9244 82.064 92.9964 82.864 97.3484 82.864H111.172C115.716 82.864 118.868 81.984 120.628 80.224C122.42 78.432 123.316 75.296 123.316 70.816C123.316 66.272 122.42 63.12 120.628 61.36C118.868 59.568 115.716 58.672 111.172 58.672H98.0204C92.3884 58.672 88.2604 57.36 85.6364 54.736C83.0124 52.112 81.7004 48 81.7004 42.4C81.7004 36.8 82.9964 32.688 85.5884 30.064C88.2124 27.44 92.3244 26.128 97.9244 26.128H111.364C116.74 26.128 120.724 27.328 123.316 29.728C125.94 32.128 127.348 35.904 127.54 41.056C127.604 41.824 127.396 42.448 126.916 42.928C126.468 43.376 125.844 43.6 125.044 43.6C124.308 43.6 123.716 43.376 123.268 42.928C122.82 42.48 122.564 41.872 122.5 41.104C122.372 37.424 121.476 34.848 119.812 33.376C118.148 31.904 115.332 31.168 111.364 31.168H97.9244C93.7324 31.168 90.8204 32 89.1884 33.664C87.5564 35.296 86.7404 38.208 86.7404 42.4C86.7404 46.592 87.5564 49.52 89.1884 51.184C90.8524 52.816 93.7964 53.632 98.0204 53.632H111.172C117.124 53.632 121.476 55.024 124.228 57.808C126.98 60.56 128.356 64.896 128.356 70.816C128.356 76.736 126.98 81.072 124.228 83.824C121.476 86.544 117.124 87.904 111.172 87.904H97.3484ZM163.023 36.688C161.871 35.664 161.775 34.528 162.735 33.28L170.943 23.536C171.999 22.256 173.135 22.16 174.351 23.248C175.503 24.24 175.599 25.36 174.639 26.608L166.431 36.352C165.407 37.632 164.271 37.744 163.023 36.688ZM148.767 67.264V70.768C148.767 75.28 149.663 78.448 151.455 80.272C153.279 82.064 156.479 82.96 161.055 82.96H168.927C172.959 82.96 175.887 82.448 177.711 81.424C179.567 80.368 180.671 78.56 181.023 76C181.151 75.2 181.407 74.592 181.791 74.176C182.207 73.76 182.831 73.552 183.663 73.552C184.495 73.552 185.119 73.792 185.535 74.272C185.983 74.72 186.159 75.36 186.063 76.192C185.647 80.224 184.031 83.2 181.215 85.12C178.399 87.04 174.303 88 168.927 88H161.055C155.071 88 150.687 86.624 147.903 83.872C145.119 81.088 143.727 76.72 143.727 70.768V59.92C143.727 53.872 145.119 49.472 147.903 46.72C150.687 43.936 155.071 42.576 161.055 42.64H168.927C174.911 42.64 179.279 44.032 182.031 46.816C184.815 49.568 186.207 53.936 186.207 59.92V64.72C186.207 66.416 185.375 67.264 183.711 67.264H148.767ZM161.055 47.68C156.479 47.616 153.279 48.496 151.455 50.32C149.663 52.112 148.767 55.312 148.767 59.92V62.224H181.167V59.92C181.167 55.344 180.271 52.16 178.479 50.368C176.687 48.576 173.503 47.68 168.927 47.68H161.055ZM205.411 88C203.715 88 202.867 87.152 202.867 85.456V45.136C202.867 43.472 203.715 42.64 205.411 42.64C207.075 42.64 207.907 43.472 207.907 45.136V52.528C209.571 49.328 211.971 46.88 215.107 45.184C218.275 43.488 222.019 42.64 226.339 42.64C228.035 42.64 228.883 43.472 228.883 45.136C228.883 46.832 228.035 47.68 226.339 47.68C220.643 47.68 216.227 48.976 213.091 51.568C209.955 54.128 208.227 57.792 207.907 62.56V85.456C207.907 87.152 207.075 88 205.411 88ZM240.494 33.904C238.286 33.904 237.182 32.768 237.182 30.496V28.336C237.182 26.128 238.286 25.024 240.494 25.024H242.654C244.798 25.024 245.87 26.128 245.87 28.336V30.496C245.87 32.768 244.798 33.904 242.654 33.904H240.494ZM241.598 88C239.902 88 239.054 87.152 239.054 85.456V45.136C239.054 43.472 239.902 42.64 241.598 42.64C243.262 42.64 244.094 43.472 244.094 45.136V85.456C244.094 87.152 243.262 88 241.598 88ZM265.767 67.264V70.768C265.767 75.28 266.663 78.448 268.455 80.272C270.279 82.064 273.479 82.96 278.055 82.96H285.927C289.959 82.96 292.887 82.448 294.711 81.424C296.567 80.368 297.671 78.56 298.023 76C298.151 75.2 298.407 74.592 298.791 74.176C299.207 73.76 299.831 73.552 300.663 73.552C301.495 73.552 302.119 73.792 302.535 74.272C302.983 74.72 303.159 75.36 303.063 76.192C302.647 80.224 301.031 83.2 298.215 85.12C295.399 87.04 291.303 88 285.927 88H278.055C272.071 88 267.687 86.624 264.903 83.872C262.119 81.088 260.727 76.72 260.727 70.768V59.92C260.727 53.872 262.119 49.472 264.903 46.72C267.687 43.936 272.071 42.576 278.055 42.64H285.927C291.911 42.64 296.279 44.032 299.031 46.816C301.815 49.568 303.207 53.936 303.207 59.92V64.72C303.207 66.416 302.375 67.264 300.711 67.264H265.767ZM278.055 47.68C273.479 47.616 270.279 48.496 268.455 50.32C266.663 52.112 265.767 55.312 265.767 59.92V62.224H298.167V59.92C298.167 55.344 297.271 52.16 295.479 50.368C293.687 48.576 290.503 47.68 285.927 47.68H278.055ZM329.803 87.904C325.867 87.904 322.859 87.072 320.779 85.408C318.699 83.712 317.451 81.136 317.035 77.68C316.939 76.848 317.115 76.208 317.563 75.76C318.011 75.28 318.667 75.04 319.531 75.04C320.331 75.04 320.923 75.248 321.307 75.664C321.723 76.08 321.995 76.704 322.123 77.536C322.411 79.52 323.131 80.912 324.283 81.712C325.467 82.48 327.307 82.864 329.803 82.864H345.547C348.523 82.864 350.571 82.304 351.691 81.184C352.811 80.064 353.371 78.016 353.371 75.04C353.371 72.032 352.811 69.968 351.691 68.848C350.571 67.728 348.523 67.168 345.547 67.168H329.995C325.835 67.168 322.731 66.176 320.683 64.192C318.667 62.176 317.659 59.088 317.659 54.928C317.659 50.672 318.667 47.552 320.683 45.568C322.699 43.552 325.803 42.544 329.995 42.544H345.067C352.299 42.544 356.315 45.744 357.115 52.144C357.243 52.976 357.067 53.632 356.587 54.112C356.139 54.56 355.499 54.784 354.667 54.784C353.867 54.784 353.259 54.576 352.843 54.16C352.459 53.744 352.187 53.136 352.027 52.336C351.803 50.544 351.147 49.312 350.059 48.64C349.003 47.936 347.339 47.584 345.067 47.584H329.995C327.211 47.584 325.291 48.096 324.235 49.12C323.211 50.144 322.699 52.08 322.699 54.928C322.699 57.648 323.227 59.536 324.283 60.592C325.339 61.616 327.243 62.128 329.995 62.128H345.547C349.963 62.128 353.211 63.184 355.291 65.296C357.371 67.376 358.411 70.624 358.411 75.04C358.411 79.424 357.371 82.672 355.291 84.784C353.211 86.864 349.963 87.904 345.547 87.904H329.803Z" fill="white"/>
</svg>
