<svg width="543" height="105" viewBox="0 0 543 105" fill="none" xmlns="http://www.w3.org/2000/svg">
<path d="M0 10C0 4.47715 4.47715 0 10 0H437V105H10C4.47715 105 0 100.523 0 95V10Z" fill="#082032"/>
<path d="M437 0H533C538.523 0 543 4.47715 543 10V95C543 100.523 538.523 105 533 105H437V0Z" fill="#FF4C29"/>
<path d="M495.531 40.75L517.455 18.8258" stroke="white" stroke-width="2" stroke-linecap="square"/>
<path fill-rule="evenodd" clip-rule="evenodd" d="M472.965 13.1876C459.212 26.9414 459.212 49.2407 472.965 62.9945C486.719 76.7482 509.018 76.7482 522.772 62.9945L472.965 13.1876Z" fill="white"/>
<path fill-rule="evenodd" clip-rule="evenodd" d="M469.5 62.94C469.5 60.833 471.199 59.125 473.328 59.125C475.442 59.125 477.156 60.8539 477.156 62.94V91.2813H469.5V62.94Z" fill="white"/>
<path d="M473.328 66.7812C474.597 66.7812 475.625 65.7529 475.625 64.4844C475.625 63.2158 474.597 62.1875 473.328 62.1875C472.06 62.1875 471.031 63.2158 471.031 64.4844C471.031 65.7529 472.06 66.7812 473.328 66.7812Z" fill="#FF4C29"/>
<path fill-rule="evenodd" clip-rule="evenodd" d="M463.375 91.2812H483.281L487.875 100.469H458.781L463.375 91.2812Z" fill="white"/>
<path d="M518.5 23.9062C521.883 23.9062 524.625 21.164 524.625 17.7812C524.625 14.3985 521.883 11.6562 518.5 11.6562C515.117 11.6562 512.375 14.3985 512.375 17.7812C512.375 21.164 515.117 23.9062 518.5 23.9062Z" fill="white"/>
<path d="M45.0981 89C43.4021 89 42.5541 88.152 42.5541 86.456V29.672C42.5541 27.976 43.4021 27.128 45.0981 27.128C45.9941 27.128 46.8581 27.624 47.6901 28.616L88.3461 80.84H87.1941V29.672C87.1941 27.976 88.0421 27.128 89.7381 27.128C91.4021 27.128 92.2341 27.976 92.2341 29.672V86.456C92.2341 88.152 91.4021 89 89.7381 89C88.8101 89 87.9461 88.504 87.1461 87.512L46.4421 35.288H47.5941V86.456C47.5941 88.152 46.7621 89 45.0981 89ZM126.18 89C120.196 89 115.812 87.624 113.028 84.872C110.244 82.088 108.852 77.72 108.852 71.768V60.92C108.852 54.872 110.244 50.472 113.028 47.72C115.812 44.936 120.196 43.576 126.18 43.64H134.052C140.036 43.64 144.404 45.032 147.156 47.816C149.94 50.568 151.332 54.936 151.332 60.92V71.672C151.332 77.656 149.94 82.04 147.156 84.824C144.404 87.608 140.036 89 134.052 89H126.18ZM113.892 71.768C113.892 76.28 114.788 79.448 116.58 81.272C118.404 83.064 121.604 83.96 126.18 83.96H134.052C138.628 83.96 141.812 83.064 143.604 81.272C145.396 79.448 146.292 76.248 146.292 71.672V60.92C146.292 56.344 145.396 53.16 143.604 51.368C141.812 49.576 138.628 48.68 134.052 48.68H126.18C123.108 48.648 120.676 49.016 118.884 49.784C117.092 50.552 115.812 51.832 115.044 53.624C114.276 55.416 113.892 57.848 113.892 60.92V71.768ZM184.645 89C178.757 89 174.453 87.64 171.733 84.92C169.013 82.2 167.653 77.912 167.653 72.056V48.68H161.941C160.245 48.68 159.397 47.832 159.397 46.136C159.397 44.472 160.245 43.64 161.941 43.64H167.653V33.32C167.653 31.624 168.485 30.776 170.149 30.776C171.845 30.776 172.693 31.624 172.693 33.32V43.64H184.741C186.405 43.64 187.237 44.472 187.237 46.136C187.237 47.832 186.405 48.68 184.741 48.68H172.693V72.056C172.693 76.536 173.557 79.64 175.285 81.368C177.045 83.096 180.165 83.96 184.645 83.96C185.573 83.96 186.229 84.168 186.613 84.584C187.029 85 187.237 85.624 187.237 86.456C187.237 88.152 186.373 89 184.645 89ZM200.475 37.688C199.323 36.664 199.227 35.528 200.187 34.28L208.395 24.536C209.451 23.256 210.587 23.16 211.803 24.248C212.955 25.24 213.051 26.36 212.091 27.608L203.883 37.352C202.859 38.632 201.723 38.744 200.475 37.688ZM203.067 89C201.371 89 200.523 88.152 200.523 86.456V46.136C200.523 44.472 201.371 43.64 203.067 43.64C204.731 43.64 205.563 44.472 205.563 46.136V86.456C205.563 88.152 204.731 89 203.067 89ZM239.524 89C233.54 89 229.156 87.608 226.372 84.824C223.588 82.04 222.196 77.656 222.196 71.672V60.824C222.196 54.84 223.572 50.472 226.324 47.72C229.108 44.936 233.508 43.576 239.524 43.64H247.396C252.1 43.64 255.684 44.44 258.148 46.04C260.644 47.608 262.132 50.088 262.612 53.48C262.708 54.344 262.516 55 262.036 55.448C261.588 55.896 260.948 56.12 260.116 56.12C259.348 56.12 258.772 55.928 258.388 55.544C258.004 55.128 257.716 54.536 257.524 53.768C257.172 51.912 256.228 50.6 254.692 49.832C253.156 49.064 250.724 48.68 247.396 48.68H239.524C234.948 48.616 231.748 49.48 229.924 51.272C228.132 53.032 227.236 56.216 227.236 60.824V71.672C227.236 76.248 228.132 79.448 229.924 81.272C231.748 83.064 234.948 83.96 239.524 83.96H247.396C250.724 83.96 253.156 83.576 254.692 82.808C256.228 82.04 257.172 80.712 257.524 78.824C257.716 78.056 258.004 77.48 258.388 77.096C258.772 76.68 259.348 76.472 260.116 76.472C260.948 76.472 261.588 76.712 262.036 77.192C262.516 77.64 262.708 78.28 262.612 79.112C262.132 82.504 260.644 85 258.148 86.6C255.684 88.2 252.1 89 247.396 89H239.524ZM279.775 34.904C277.567 34.904 276.463 33.768 276.463 31.496V29.336C276.463 27.128 277.567 26.024 279.775 26.024H281.935C284.079 26.024 285.151 27.128 285.151 29.336V31.496C285.151 33.768 284.079 34.904 281.935 34.904H279.775ZM280.879 89C279.183 89 278.335 88.152 278.335 86.456V46.136C278.335 44.472 279.183 43.64 280.879 43.64C282.543 43.64 283.375 44.472 283.375 46.136V86.456C283.375 88.152 282.543 89 280.879 89ZM314.792 89C309.8 89 306.136 87.848 303.8 85.544C301.496 83.208 300.344 79.544 300.344 74.552C300.344 69.56 301.512 65.896 303.848 63.56C306.184 61.224 309.832 60.056 314.792 60.056H336.632C336.568 55.832 335.608 52.888 333.752 51.224C331.928 49.528 328.808 48.68 324.392 48.68H318.824C314.76 48.68 311.784 49.112 309.896 49.976C308.008 50.84 306.84 52.312 306.392 54.392C306.168 55.192 305.864 55.784 305.48 56.168C305.128 56.52 304.552 56.696 303.752 56.696C302.92 56.696 302.264 56.472 301.784 56.024C301.336 55.544 301.176 54.904 301.304 54.104C301.72 50.456 303.368 47.8 306.248 46.136C309.16 44.472 313.352 43.64 318.824 43.64H324.392C330.376 43.64 334.744 45.032 337.496 47.816C340.28 50.568 341.672 54.936 341.672 60.92V86.456C341.672 88.152 340.84 89 339.176 89C337.48 89 336.632 88.152 336.632 86.456V81.704C333.56 86.568 328.072 89 320.168 89H314.792ZM314.792 83.96H320.168C323.272 83.96 325.992 83.624 328.328 82.952C330.696 82.248 332.6 81.128 334.04 79.592C335.48 78.056 336.344 76.008 336.632 73.448V65.096H314.792C311.24 65.096 308.776 65.784 307.4 67.16C306.056 68.504 305.384 70.968 305.384 74.552C305.384 78.104 306.056 80.568 307.4 81.944C308.776 83.288 311.24 83.96 314.792 83.96ZM368.709 88.904C364.773 88.904 361.765 88.072 359.685 86.408C357.605 84.712 356.357 82.136 355.941 78.68C355.845 77.848 356.021 77.208 356.469 76.76C356.917 76.28 357.573 76.04 358.437 76.04C359.237 76.04 359.829 76.248 360.213 76.664C360.629 77.08 360.901 77.704 361.029 78.536C361.317 80.52 362.037 81.912 363.189 82.712C364.373 83.48 366.213 83.864 368.709 83.864H384.453C387.429 83.864 389.477 83.304 390.597 82.184C391.717 81.064 392.277 79.016 392.277 76.04C392.277 73.032 391.717 70.968 390.597 69.848C389.477 68.728 387.429 68.168 384.453 68.168H368.901C364.741 68.168 361.637 67.176 359.589 65.192C357.573 63.176 356.565 60.088 356.565 55.928C356.565 51.672 357.573 48.552 359.589 46.568C361.605 44.552 364.709 43.544 368.901 43.544H383.973C391.205 43.544 395.221 46.744 396.021 53.144C396.149 53.976 395.973 54.632 395.493 55.112C395.045 55.56 394.405 55.784 393.573 55.784C392.773 55.784 392.165 55.576 391.749 55.16C391.365 54.744 391.093 54.136 390.933 53.336C390.709 51.544 390.053 50.312 388.965 49.64C387.909 48.936 386.245 48.584 383.973 48.584H368.901C366.117 48.584 364.197 49.096 363.141 50.12C362.117 51.144 361.605 53.08 361.605 55.928C361.605 58.648 362.133 60.536 363.189 61.592C364.245 62.616 366.149 63.128 368.901 63.128H384.453C388.869 63.128 392.117 64.184 394.197 66.296C396.277 68.376 397.317 71.624 397.317 76.04C397.317 80.424 396.277 83.672 394.197 85.784C392.117 87.864 388.869 88.904 384.453 88.904H368.709Z" fill="white"/>
</svg>
