<svg width="543" height="105" viewBox="0 0 543 105" fill="none" xmlns="http://www.w3.org/2000/svg">
<path d="M0 10C0 4.47715 4.47715 0 10 0H437V105H10C4.47715 105 0 100.523 0 95V10Z" fill="#082032"/>
<path d="M437 0H533C538.523 0 543 4.47715 543 10V95C543 100.523 538.523 105 533 105H437V0Z" fill="#FF4C29"/>
<path d="M73.9773 88C67.0333 88 61.9613 86.4 58.7613 83.2C55.5613 80 53.9613 74.928 53.9613 67.984V46.144C53.9613 39.136 55.5453 34.048 58.7133 30.88C61.9133 27.712 66.9693 26.128 73.8813 26.128H85.4973C91.3853 26.128 95.7693 27.36 98.6493 29.824C101.529 32.256 103.113 36.176 103.401 41.584C103.497 42.448 103.321 43.104 102.873 43.552C102.457 44 101.833 44.224 101.001 44.224C99.4013 44.224 98.5213 43.376 98.3613 41.68C98.1373 37.712 97.0493 34.976 95.0973 33.472C93.1453 31.936 89.9453 31.168 85.4973 31.168H73.8813C70.2013 31.168 67.2733 31.648 65.0973 32.608C62.9213 33.536 61.3533 35.104 60.3932 37.312C59.4653 39.488 59.0013 42.432 59.0013 46.144V67.984C59.0013 71.696 59.4813 74.64 60.4413 76.816C61.4013 78.992 62.9693 80.56 65.1453 81.52C67.3213 82.48 70.2653 82.96 73.9773 82.96H85.4973C89.9453 82.96 93.1453 82.208 95.0973 80.704C97.0493 79.168 98.1373 76.416 98.3613 72.448C98.5213 70.752 99.4013 69.904 101.001 69.904C101.833 69.904 102.457 70.144 102.873 70.624C103.321 71.072 103.497 71.712 103.401 72.544C103.113 77.952 101.529 81.888 98.6493 84.352C95.7693 86.784 91.3853 88 85.4973 88H73.9773ZM121.645 88C119.949 88 119.101 87.152 119.101 85.456V45.136C119.101 43.472 119.949 42.64 121.645 42.64C123.309 42.64 124.141 43.472 124.141 45.136V52.528C125.805 49.328 128.205 46.88 131.341 45.184C134.509 43.488 138.253 42.64 142.573 42.64C144.269 42.64 145.117 43.472 145.117 45.136C145.117 46.832 144.269 47.68 142.573 47.68C136.877 47.68 132.461 48.976 129.325 51.568C126.189 54.128 124.461 57.792 124.141 62.56V85.456C124.141 87.152 123.309 88 121.645 88ZM155.241 36.688C154.089 35.664 153.993 34.528 154.953 33.28L163.161 23.536C164.217 22.256 165.353 22.16 166.569 23.248C167.721 24.24 167.817 25.36 166.857 26.608L158.648 36.352C157.625 37.632 156.489 37.744 155.241 36.688ZM157.833 88C156.137 88 155.289 87.152 155.289 85.456V45.136C155.289 43.472 156.137 42.64 157.833 42.64C159.497 42.64 160.329 43.472 160.329 45.136V85.456C160.329 87.152 159.497 88 157.833 88ZM196.785 88C190.897 88 186.593 86.64 183.873 83.92C181.153 81.2 179.793 76.912 179.793 71.056V47.68H174.081C172.385 47.68 171.537 46.832 171.537 45.136C171.537 43.472 172.385 42.64 174.081 42.64H179.793V32.32C179.793 30.624 180.625 29.776 182.289 29.776C183.985 29.776 184.833 30.624 184.833 32.32V42.64H196.881C198.545 42.64 199.377 43.472 199.377 45.136C199.377 46.832 198.545 47.68 196.881 47.68H184.833V71.056C184.833 75.536 185.697 78.64 187.425 80.368C189.185 82.096 192.305 82.96 196.785 82.96C197.713 82.96 198.369 83.168 198.753 83.584C199.169 84 199.377 84.624 199.377 85.456C199.377 87.152 198.513 88 196.785 88ZM214.104 33.904C211.896 33.904 210.792 32.768 210.792 30.496V28.336C210.792 26.128 211.896 25.024 214.104 25.024H216.264C218.408 25.024 219.48 26.128 219.48 28.336V30.496C219.48 32.768 218.408 33.904 216.264 33.904H214.104ZM215.208 88C213.512 88 212.664 87.152 212.664 85.456V45.136C212.664 43.472 213.512 42.64 215.208 42.64C216.872 42.64 217.704 43.472 217.704 45.136V85.456C217.704 87.152 216.872 88 215.208 88ZM251.664 88C245.68 88 241.296 86.608 238.512 83.824C235.728 81.04 234.336 76.656 234.336 70.672V59.824C234.336 53.84 235.712 49.472 238.464 46.72C241.248 43.936 245.648 42.576 251.664 42.64H259.536C264.24 42.64 267.824 43.44 270.288 45.04C272.784 46.608 274.272 49.088 274.752 52.48C274.848 53.344 274.656 54 274.176 54.448C273.728 54.896 273.088 55.12 272.256 55.12C271.488 55.12 270.912 54.928 270.528 54.544C270.144 54.128 269.856 53.536 269.664 52.768C269.312 50.912 268.368 49.6 266.832 48.832C265.296 48.064 262.864 47.68 259.536 47.68H251.664C247.088 47.616 243.888 48.48 242.064 50.272C240.272 52.032 239.376 55.216 239.376 59.824V70.672C239.376 75.248 240.272 78.448 242.064 80.272C243.888 82.064 247.088 82.96 251.664 82.96H259.536C262.864 82.96 265.296 82.576 266.832 81.808C268.368 81.04 269.312 79.712 269.664 77.824C269.856 77.056 270.144 76.48 270.528 76.096C270.912 75.68 271.488 75.472 272.256 75.472C273.088 75.472 273.728 75.712 274.176 76.192C274.656 76.64 274.848 77.28 274.752 78.112C274.272 81.504 272.784 84 270.288 85.6C267.824 87.2 264.24 88 259.536 88H251.664ZM302.089 88C297.097 88 293.433 86.848 291.097 84.544C288.793 82.208 287.641 78.544 287.641 73.552C287.641 68.56 288.809 64.896 291.145 62.56C293.481 60.224 297.129 59.056 302.089 59.056H323.929C323.865 54.832 322.905 51.888 321.049 50.224C319.225 48.528 316.105 47.68 311.689 47.68H306.121C302.057 47.68 299.081 48.112 297.193 48.976C295.305 49.84 294.137 51.312 293.689 53.392C293.465 54.192 293.161 54.784 292.777 55.168C292.425 55.52 291.849 55.696 291.049 55.696C290.217 55.696 289.561 55.472 289.081 55.024C288.633 54.544 288.473 53.904 288.601 53.104C289.017 49.456 290.665 46.8 293.545 45.136C296.457 43.472 300.649 42.64 306.121 42.64H311.689C317.673 42.64 322.041 44.032 324.793 46.816C327.577 49.568 328.969 53.936 328.969 59.92V85.456C328.969 87.152 328.137 88 326.473 88C324.777 88 323.929 87.152 323.929 85.456V80.704C320.857 85.568 315.369 88 307.465 88H302.089ZM302.089 82.96H307.465C310.569 82.96 313.289 82.624 315.625 81.952C317.993 81.248 319.897 80.128 321.337 78.592C322.777 77.056 323.641 75.008 323.929 72.448V64.096H302.089C298.537 64.096 296.073 64.784 294.697 66.16C293.353 67.504 292.681 69.968 292.681 73.552C292.681 77.104 293.353 79.568 294.697 80.944C296.073 82.288 298.537 82.96 302.089 82.96ZM356.006 87.904C352.07 87.904 349.062 87.072 346.982 85.408C344.902 83.712 343.654 81.136 343.238 77.68C343.142 76.848 343.318 76.208 343.766 75.76C344.214 75.28 344.87 75.04 345.734 75.04C346.534 75.04 347.126 75.248 347.51 75.664C347.926 76.08 348.198 76.704 348.326 77.536C348.614 79.52 349.334 80.912 350.486 81.712C351.67 82.48 353.51 82.864 356.006 82.864H371.75C374.726 82.864 376.774 82.304 377.894 81.184C379.014 80.064 379.574 78.016 379.574 75.04C379.574 72.032 379.014 69.968 377.894 68.848C376.774 67.728 374.726 67.168 371.75 67.168H356.198C352.038 67.168 348.934 66.176 346.886 64.192C344.87 62.176 343.862 59.088 343.862 54.928C343.862 50.672 344.87 47.552 346.886 45.568C348.902 43.552 352.006 42.544 356.198 42.544H371.27C378.502 42.544 382.518 45.744 383.318 52.144C383.446 52.976 383.27 53.632 382.79 54.112C382.342 54.56 381.702 54.784 380.87 54.784C380.07 54.784 379.462 54.576 379.046 54.16C378.662 53.744 378.39 53.136 378.23 52.336C378.006 50.544 377.35 49.312 376.262 48.64C375.206 47.936 373.542 47.584 371.27 47.584H356.198C353.414 47.584 351.494 48.096 350.438 49.12C349.414 50.144 348.902 52.08 348.902 54.928C348.902 57.648 349.43 59.536 350.486 60.592C351.542 61.616 353.446 62.128 356.198 62.128H371.75C376.166 62.128 379.414 63.184 381.494 65.296C383.574 67.376 384.614 70.624 384.614 75.04C384.614 79.424 383.574 82.672 381.494 84.784C379.414 86.864 376.166 87.904 371.75 87.904H356.006Z" fill="white"/>
<path d="M523.641 61.5649H490.72C490.018 61.5649 489.344 61.844 488.847 62.3409C488.35 62.8377 488.071 63.5116 488.071 64.2142C488.071 64.9169 488.35 65.5907 488.847 66.0876C489.344 66.5844 490.018 66.8635 490.72 66.8635H498.989C499.018 67.9705 499.275 69.0597 499.744 70.0626L486.365 79.7855L467.419 56.21L476.996 37.7338C477.447 36.8634 477.544 35.8523 477.268 34.9117C476.991 33.9711 476.362 33.1737 475.512 32.6859V32.6859C474.661 32.198 473.655 32.0576 472.703 32.2939C471.752 32.5302 470.928 33.125 470.405 33.9541L457.521 54.3588L456.183 56.4749L457.65 59.3726L472.503 88.6939H458.359C457.656 88.6939 456.982 88.973 456.485 89.4698C455.989 89.9667 455.709 90.6405 455.709 91.3432C455.709 92.0458 455.989 92.7197 456.485 93.2165C456.982 93.7134 457.656 93.9925 458.359 93.9925H511.997C512.7 93.9925 513.374 93.7134 513.871 93.2165C514.368 92.7197 514.647 92.0458 514.647 91.3432C514.647 90.6405 514.368 89.9667 513.871 89.4698C513.374 88.973 512.7 88.6939 511.997 88.6939H495.128L509.096 74.5896C510.845 74.1678 512.406 73.1831 513.54 71.7871C514.674 70.3911 515.318 68.6612 515.372 66.8635H523.641C524.344 66.8635 525.018 66.5844 525.514 66.0876C526.011 65.5907 526.29 64.9169 526.29 64.2142C526.29 63.5116 526.011 62.8377 525.514 62.3409C525.018 61.844 524.344 61.5649 523.641 61.5649H523.641Z" fill="white"/>
<path d="M491.758 46.8411L505.273 38.2111L488.199 11.1466C488.131 11.0392 488.041 10.9463 487.937 10.8732C487.832 10.8002 487.715 10.7485 487.59 10.721C487.466 10.6936 487.337 10.6909 487.211 10.7132C487.086 10.7354 486.966 10.7822 486.858 10.8508L485.697 11.5925C485.192 10.8212 484.404 10.2799 483.502 10.0862C482.601 9.89257 481.66 10.0621 480.883 10.558L477.228 12.892C476.451 13.3882 475.901 14.1707 475.698 15.0697C475.494 15.9687 475.653 16.9117 476.141 17.6941L474.979 18.4357C474.762 18.5743 474.609 18.7934 474.554 19.0449C474.498 19.2964 474.545 19.5596 474.683 19.7766L491.758 46.8411Z" fill="white"/>
<path d="M494.949 50.0509L494.663 51.3439C494.623 51.5272 494.619 51.7166 494.651 51.9015C494.684 52.0863 494.753 52.2629 494.854 52.4211C494.955 52.5794 495.086 52.7162 495.24 52.8237C495.393 52.9312 495.567 53.0074 495.75 53.0478C495.933 53.0883 496.123 53.0922 496.308 53.0594C496.493 53.0265 496.669 52.9576 496.827 52.8565C496.985 52.7555 497.122 52.6242 497.229 52.4703C497.337 52.3164 497.413 52.1428 497.453 51.9594L497.739 50.6655C499.056 50.7358 500.371 50.503 501.584 49.9848L502.296 51.1C502.5 51.4193 502.822 51.6445 503.192 51.7262C503.562 51.8078 503.949 51.7391 504.269 51.5352C504.588 51.3314 504.813 51.009 504.895 50.6391C504.976 50.2692 504.908 49.882 504.704 49.5627L503.992 48.4475C504.972 47.5653 505.736 46.4701 506.226 45.2461L507.52 45.5316C507.89 45.6129 508.277 45.544 508.596 45.3401C508.915 45.1362 509.14 44.8139 509.222 44.4442C509.303 44.0744 509.235 43.6874 509.031 43.3682C508.827 43.0489 508.505 42.8236 508.136 42.7417L506.842 42.4572C506.888 41.5971 506.804 40.7351 506.595 39.8997L492.732 48.751C493.403 49.2919 494.15 49.73 494.949 50.0509V50.0509Z" fill="white"/>
</svg>
