<svg width="543" height="105" viewBox="0 0 543 105" fill="none" xmlns="http://www.w3.org/2000/svg">
<path d="M0 10C0 4.47715 4.47715 0 10 0H437V105H10C4.47715 105 0 100.523 0 95V10Z" fill="#082032"/>
<path d="M437 0H533C538.523 0 543 4.47715 543 10V95C543 100.523 538.523 105 533 105H437V0Z" fill="#FF4C29"/>
<path d="M89.5398 89C82.5958 89 77.5238 87.4 74.3238 84.2C71.1238 81 69.5238 75.928 69.5238 68.984V47.144C69.5238 40.136 71.1078 35.048 74.2758 31.88C77.4758 28.712 82.5318 27.128 89.4438 27.128H101.06C106.948 27.128 111.332 28.36 114.212 30.824C117.092 33.256 118.676 37.176 118.964 42.584C119.06 43.448 118.884 44.104 118.436 44.552C118.02 45 117.396 45.224 116.564 45.224C114.964 45.224 114.084 44.376 113.924 42.68C113.7 38.712 112.612 35.976 110.66 34.472C108.708 32.936 105.508 32.168 101.06 32.168H89.4438C85.7638 32.168 82.8358 32.648 80.6598 33.608C78.4838 34.536 76.9158 36.104 75.9557 38.312C75.0278 40.488 74.5638 43.432 74.5638 47.144V68.984C74.5638 72.696 75.0438 75.64 76.0038 77.816C76.9638 79.992 78.5318 81.56 80.7078 82.52C82.8838 83.48 85.8278 83.96 89.5398 83.96H101.06C104.324 83.96 106.9 83.56 108.788 82.76C110.708 81.96 112.068 80.616 112.868 78.728C113.668 76.84 114.068 74.232 114.068 70.904V64.904L103.556 64.808C101.892 64.808 101.06 63.96 101.06 62.264C101.06 60.6 101.892 59.768 103.556 59.768L116.612 59.864C118.276 59.864 119.108 60.696 119.108 62.36V70.904C119.108 77.24 117.684 81.848 114.836 84.728C111.988 87.576 107.396 89 101.06 89H89.5398ZM146.37 89C141.378 89 137.714 87.848 135.378 85.544C133.074 83.208 131.922 79.544 131.922 74.552C131.922 69.56 133.09 65.896 135.426 63.56C137.762 61.224 141.41 60.056 146.37 60.056H168.21C168.146 55.832 167.186 52.888 165.33 51.224C163.506 49.528 160.386 48.68 155.97 48.68H150.402C146.338 48.68 143.362 49.112 141.474 49.976C139.586 50.84 138.418 52.312 137.97 54.392C137.746 55.192 137.442 55.784 137.058 56.168C136.706 56.52 136.13 56.696 135.33 56.696C134.498 56.696 133.842 56.472 133.362 56.024C132.914 55.544 132.754 54.904 132.882 54.104C133.298 50.456 134.946 47.8 137.826 46.136C140.738 44.472 144.93 43.64 150.402 43.64H155.97C161.954 43.64 166.322 45.032 169.074 47.816C171.858 50.568 173.25 54.936 173.25 60.92V86.456C173.25 88.152 172.418 89 170.754 89C169.058 89 168.21 88.152 168.21 86.456V81.704C165.138 86.568 159.65 89 151.746 89H146.37ZM146.37 83.96H151.746C154.85 83.96 157.57 83.624 159.906 82.952C162.274 82.248 164.178 81.128 165.618 79.592C167.058 78.056 167.922 76.008 168.21 73.448V65.096H146.37C142.818 65.096 140.354 65.784 138.978 67.16C137.634 68.504 136.962 70.968 136.962 74.552C136.962 78.104 137.634 80.568 138.978 81.944C140.354 83.288 142.818 83.96 146.37 83.96ZM241.183 43.544C246.335 43.544 250.015 44.856 252.223 47.48C254.463 50.104 255.583 54.44 255.583 60.488V86.552C255.583 88.216 254.751 89.048 253.087 89.048C251.391 89.048 250.543 88.216 250.543 86.552V60.488C250.543 56.264 249.823 53.224 248.383 51.368C246.943 49.512 244.543 48.584 241.183 48.584H237.199C233.007 48.584 229.999 49.512 228.175 51.368C226.383 53.224 225.487 56.264 225.487 60.488V86.552C225.487 88.216 224.655 89.048 222.991 89.048C221.295 89.048 220.447 88.216 220.447 86.552V60.488C220.447 56.264 219.727 53.224 218.287 51.368C216.847 49.512 214.447 48.584 211.087 48.584H207.103C202.911 48.584 199.903 49.512 198.079 51.368C196.287 53.224 195.391 56.264 195.391 60.488V86.552C195.391 88.216 194.559 89.048 192.895 89.048C191.199 89.048 190.351 88.216 190.351 86.552V46.136C190.351 44.472 191.199 43.64 192.895 43.64C194.559 43.64 195.391 44.472 195.391 46.136V49.88C196.799 47.608 198.463 45.992 200.383 45.032C202.335 44.04 204.799 43.544 207.775 43.544H211.087C214.447 43.544 217.135 44.136 219.151 45.32C221.199 46.472 222.815 48.376 223.999 51.032C225.407 48.376 227.135 46.472 229.183 45.32C231.231 44.136 233.903 43.544 237.199 43.544H241.183ZM276.408 68.264V71.768C276.408 76.28 277.304 79.448 279.096 81.272C280.92 83.064 284.12 83.96 288.696 83.96H296.568C300.6 83.96 303.528 83.448 305.352 82.424C307.208 81.368 308.312 79.56 308.664 77C308.792 76.2 309.048 75.592 309.432 75.176C309.848 74.76 310.472 74.552 311.304 74.552C312.136 74.552 312.76 74.792 313.176 75.272C313.624 75.72 313.8 76.36 313.704 77.192C313.288 81.224 311.672 84.2 308.856 86.12C306.04 88.04 301.944 89 296.568 89H288.696C282.712 89 278.328 87.624 275.544 84.872C272.76 82.088 271.368 77.72 271.368 71.768V60.92C271.368 54.872 272.76 50.472 275.544 47.72C278.328 44.936 282.712 43.576 288.696 43.64H296.568C302.552 43.64 306.92 45.032 309.672 47.816C312.456 50.568 313.848 54.936 313.848 60.92V65.72C313.848 67.416 313.016 68.264 311.352 68.264H276.408ZM288.696 48.68C284.12 48.616 280.92 49.496 279.096 51.32C277.304 53.112 276.408 56.312 276.408 60.92V63.224H308.808V60.92C308.808 56.344 307.912 53.16 306.12 51.368C304.328 49.576 301.144 48.68 296.568 48.68H288.696ZM340.443 88.904C336.507 88.904 333.499 88.072 331.419 86.408C329.339 84.712 328.091 82.136 327.675 78.68C327.579 77.848 327.755 77.208 328.203 76.76C328.651 76.28 329.307 76.04 330.171 76.04C330.971 76.04 331.563 76.248 331.947 76.664C332.363 77.08 332.635 77.704 332.763 78.536C333.051 80.52 333.771 81.912 334.923 82.712C336.107 83.48 337.947 83.864 340.443 83.864H356.187C359.163 83.864 361.211 83.304 362.331 82.184C363.451 81.064 364.011 79.016 364.011 76.04C364.011 73.032 363.451 70.968 362.331 69.848C361.211 68.728 359.163 68.168 356.187 68.168H340.635C336.475 68.168 333.371 67.176 331.323 65.192C329.307 63.176 328.299 60.088 328.299 55.928C328.299 51.672 329.307 48.552 331.323 46.568C333.339 44.552 336.443 43.544 340.635 43.544H355.707C362.939 43.544 366.955 46.744 367.755 53.144C367.883 53.976 367.707 54.632 367.227 55.112C366.779 55.56 366.139 55.784 365.307 55.784C364.507 55.784 363.899 55.576 363.483 55.16C363.099 54.744 362.827 54.136 362.667 53.336C362.443 51.544 361.787 50.312 360.699 49.64C359.643 48.936 357.979 48.584 355.707 48.584H340.635C337.851 48.584 335.931 49.096 334.875 50.12C333.851 51.144 333.339 53.08 333.339 55.928C333.339 58.648 333.867 60.536 334.923 61.592C335.979 62.616 337.883 63.128 340.635 63.128H356.187C360.603 63.128 363.851 64.184 365.931 66.296C368.011 68.376 369.051 71.624 369.051 76.04C369.051 80.424 368.011 83.672 365.931 85.784C363.851 87.864 360.603 88.904 356.187 88.904H340.443Z" fill="white"/>
<path d="M511.125 46.25C507.388 46.25 503.937 47.1125 500.775 49.125H493.875V46.25C493.875 38.2 487.55 31.875 479.5 31.875H470.875C465.987 31.875 462.25 28.1375 462.25 23.25V14.625C462.25 12.9 461.1 11.75 459.375 11.75C457.65 11.75 456.5 12.9 456.5 14.625V23.25C456.5 31.3 462.825 37.625 470.875 37.625H479.5C484.388 37.625 488.125 41.3625 488.125 46.25V49.125H481.225C478.063 47.1125 474.612 46.25 470.875 46.25C459.662 46.25 450.75 55.1625 450.75 66.375C450.75 77.5875 459.662 86.5 470.875 86.5C474.612 86.5 478.063 85.6375 481.225 83.625H500.775C503.937 85.6375 507.388 86.5 511.125 86.5C522.338 86.5 531.25 77.5875 531.25 66.375C531.25 55.1625 522.338 46.25 511.125 46.25ZM476.625 69.25H473.75V72.125C473.75 73.85 472.6 75 470.875 75C469.15 75 468 73.85 468 72.125V69.25H465.125C463.4 69.25 462.25 68.1 462.25 66.375C462.25 64.65 463.4 63.5 465.125 63.5H468V60.625C468 58.9 469.15 57.75 470.875 57.75C472.6 57.75 473.75 58.9 473.75 60.625V63.5H476.625C478.35 63.5 479.5 64.65 479.5 66.375C479.5 68.1 478.35 69.25 476.625 69.25ZM508.538 59.475C508.825 59.1875 508.825 58.9 509.112 58.6125C509.975 57.75 511.125 57.4625 512.275 58.0375C512.562 58.325 512.85 58.325 513.138 58.6125C513.425 58.9 513.712 59.1875 513.712 59.475C513.712 59.7625 514 60.3375 514 60.625C514 60.9125 514 61.4875 513.712 61.775C513.425 62.0625 513.425 62.35 513.138 62.6375C512.85 62.925 512.562 63.2125 512.275 63.2125C511.987 63.5 511.413 63.5 511.125 63.5C510.262 63.5 509.687 63.2125 509.112 62.6375C508.825 62.35 508.538 62.0625 508.538 61.775C508.538 61.4875 508.25 60.9125 508.25 60.625C508.25 60.3375 508.25 59.7625 508.538 59.475ZM505.375 69.25C504.512 69.25 503.937 68.9625 503.362 68.3875C503.075 68.1 502.788 67.8125 502.788 67.525C502.788 67.2375 502.5 66.6625 502.5 66.375C502.5 65.5125 502.787 64.9375 503.362 64.3625C504.512 63.2125 506.238 63.2125 507.388 64.3625L507.675 64.65C507.675 64.9375 507.962 64.9375 507.962 65.225C507.962 65.5125 507.962 65.5125 508.25 65.8C508.25 66.0875 508.25 66.0875 508.25 66.375C508.25 67.2375 507.963 67.8125 507.388 68.3875C506.813 68.9625 506.238 69.25 505.375 69.25ZM514 72.7C514 72.9875 514 72.9875 513.712 73.275C513.712 73.5625 513.425 73.5625 513.425 73.85L513.138 74.1375C512.85 74.425 512.562 74.7125 512.275 74.7125C511.987 75 511.413 75 511.125 75C510.262 75 509.687 74.7125 509.112 74.1375C508.537 73.5625 508.25 72.9875 508.25 72.125C508.25 71.2625 508.537 70.6875 509.112 70.1125C509.975 69.25 511.125 68.9625 512.275 69.5375C512.562 69.825 512.85 69.825 513.138 70.1125C513.713 70.6875 514 71.2625 514 72.125C514 72.4125 514 72.4125 514 72.7ZM519.462 67.525C519.175 67.8125 519.175 68.1 518.888 68.3875C518.6 68.3875 518.6 68.675 518.6 68.675C518.313 68.675 518.312 68.9625 518.025 68.9625C517.737 68.9625 517.738 68.9625 517.45 69.25C517.163 69.25 517.163 69.25 516.875 69.25C516.012 69.25 515.437 68.9625 514.862 68.3875C514.575 68.1 514.288 67.8125 514.288 67.525C514.288 67.2375 514 66.6625 514 66.375C514 66.0875 514 65.5125 514.288 65.225C514.575 64.9375 514.575 64.65 514.862 64.3625C515.437 63.7875 516.588 63.5 517.45 63.5C517.738 63.5 517.737 63.5 518.025 63.7875C518.312 63.7875 518.313 64.075 518.6 64.075L518.888 64.3625C519.175 64.65 519.462 64.9375 519.462 65.225C519.462 65.5125 519.75 66.0875 519.75 66.375C519.75 66.6625 519.75 67.2375 519.462 67.525Z" fill="white"/>
</svg>
