<svg width="543" height="105" viewBox="0 0 543 105" fill="none" xmlns="http://www.w3.org/2000/svg">
<path d="M0 10C0 4.47715 4.47715 0 10 0H437V105H10C4.47715 105 0 100.523 0 95V10Z" fill="#082032"/>
<path d="M437 0H533C538.523 0 543 4.47715 543 10V95C543 100.523 538.523 105 533 105H437V0Z" fill="#FF4C29"/>
<path d="M88.957 89.096C88.253 89.512 87.613 89.656 87.037 89.528C86.461 89.4 85.949 89 85.501 88.328L69.757 63.272H52.141V86.456C52.141 88.152 51.309 89 49.645 89C47.949 89 47.101 88.152 47.101 86.456V29.672C47.101 27.976 47.949 27.128 49.645 27.128H72.109C77.581 27.128 81.709 28.536 84.493 31.352C87.309 34.168 88.717 38.312 88.717 43.784V46.664C88.717 51.496 87.613 55.288 85.405 58.04C83.197 60.792 79.933 62.472 75.613 63.08L89.773 85.64C90.669 87.112 90.397 88.264 88.957 89.096ZM52.141 58.232H72.109C76.141 58.232 79.069 57.32 80.893 55.496C82.749 53.64 83.677 50.696 83.677 46.664V43.784C83.677 39.72 82.749 36.776 80.893 34.952C79.069 33.096 76.141 32.168 72.109 32.168H52.141V58.232ZM107.751 68.264V71.768C107.751 76.28 108.647 79.448 110.439 81.272C112.263 83.064 115.463 83.96 120.039 83.96H127.911C131.943 83.96 134.871 83.448 136.695 82.424C138.551 81.368 139.655 79.56 140.007 77C140.135 76.2 140.391 75.592 140.775 75.176C141.191 74.76 141.815 74.552 142.647 74.552C143.479 74.552 144.103 74.792 144.519 75.272C144.967 75.72 145.143 76.36 145.047 77.192C144.631 81.224 143.015 84.2 140.199 86.12C137.383 88.04 133.287 89 127.911 89H120.039C114.055 89 109.671 87.624 106.887 84.872C104.103 82.088 102.711 77.72 102.711 71.768V60.92C102.711 54.872 104.103 50.472 106.887 47.72C109.671 44.936 114.055 43.576 120.039 43.64H127.911C133.895 43.64 138.263 45.032 141.015 47.816C143.799 50.568 145.191 54.936 145.191 60.92V65.72C145.191 67.416 144.359 68.264 142.695 68.264H107.751ZM120.039 48.68C115.463 48.616 112.263 49.496 110.439 51.32C108.647 53.112 107.751 56.312 107.751 60.92V63.224H140.151V60.92C140.151 56.344 139.255 53.16 137.463 51.368C135.671 49.576 132.487 48.68 127.911 48.68H120.039ZM177.4 87.08C177.048 87.848 176.616 88.36 176.104 88.616C175.592 88.872 175 89 174.328 89C172.92 89 171.928 88.344 171.352 87.032L153.544 47.144C152.872 45.576 153.336 44.488 154.936 43.88C156.44 43.24 157.528 43.688 158.2 45.224L175.96 84.968H172.888L191.8 45.176C192.152 44.44 192.616 43.96 193.192 43.736C193.768 43.512 194.424 43.56 195.16 43.88C196.728 44.584 197.16 45.704 196.456 47.24L177.4 87.08ZM209.51 34.904C207.302 34.904 206.198 33.768 206.198 31.496V29.336C206.198 27.128 207.302 26.024 209.51 26.024H211.67C213.814 26.024 214.886 27.128 214.886 29.336V31.496C214.886 33.768 213.814 34.904 211.67 34.904H209.51ZM210.614 89C208.918 89 208.07 88.152 208.07 86.456V46.136C208.07 44.472 208.918 43.64 210.614 43.64C212.278 43.64 213.11 44.472 213.11 46.136V86.456C213.11 88.152 212.278 89 210.614 89ZM234.783 68.264V71.768C234.783 76.28 235.679 79.448 237.471 81.272C239.295 83.064 242.495 83.96 247.071 83.96H254.943C258.975 83.96 261.903 83.448 263.727 82.424C265.583 81.368 266.687 79.56 267.039 77C267.167 76.2 267.423 75.592 267.807 75.176C268.223 74.76 268.847 74.552 269.679 74.552C270.511 74.552 271.135 74.792 271.551 75.272C271.999 75.72 272.175 76.36 272.079 77.192C271.663 81.224 270.047 84.2 267.231 86.12C264.415 88.04 260.319 89 254.943 89H247.071C241.087 89 236.703 87.624 233.919 84.872C231.135 82.088 229.743 77.72 229.743 71.768V60.92C229.743 54.872 231.135 50.472 233.919 47.72C236.703 44.936 241.087 43.576 247.071 43.64H254.943C260.927 43.64 265.295 45.032 268.047 47.816C270.831 50.568 272.223 54.936 272.223 60.92V65.72C272.223 67.416 271.391 68.264 269.727 68.264H234.783ZM247.071 48.68C242.495 48.616 239.295 49.496 237.471 51.32C235.679 53.112 234.783 56.312 234.783 60.92V63.224H267.183V60.92C267.183 56.344 266.287 53.16 264.495 51.368C262.703 49.576 259.519 48.68 254.943 48.68H247.071ZM296.943 89C295.439 89 294.463 88.312 294.015 86.936L280.479 47.048C279.935 45.416 280.463 44.344 282.063 43.832C283.631 43.352 284.671 43.88 285.183 45.416L298.335 83.96H296.319L308.895 46.136C309.343 44.792 310.303 44.12 311.775 44.12C313.183 44.12 314.095 44.808 314.511 46.184L326.271 83.864H324.159L337.983 45.416C338.623 43.784 339.711 43.256 341.247 43.832C342.847 44.44 343.359 45.528 342.783 47.096L327.951 86.936C327.439 88.312 326.447 89 324.975 89C323.343 89 322.319 88.312 321.903 86.936L311.007 52.04H311.967L299.967 86.936C299.711 87.736 299.311 88.28 298.767 88.568C298.223 88.856 297.615 89 296.943 89ZM364.162 88.904C360.226 88.904 357.218 88.072 355.138 86.408C353.058 84.712 351.81 82.136 351.394 78.68C351.298 77.848 351.474 77.208 351.922 76.76C352.37 76.28 353.026 76.04 353.89 76.04C354.69 76.04 355.282 76.248 355.666 76.664C356.082 77.08 356.354 77.704 356.482 78.536C356.77 80.52 357.49 81.912 358.642 82.712C359.826 83.48 361.666 83.864 364.162 83.864H379.906C382.882 83.864 384.93 83.304 386.05 82.184C387.17 81.064 387.73 79.016 387.73 76.04C387.73 73.032 387.17 70.968 386.05 69.848C384.93 68.728 382.882 68.168 379.906 68.168H364.354C360.194 68.168 357.09 67.176 355.042 65.192C353.026 63.176 352.018 60.088 352.018 55.928C352.018 51.672 353.026 48.552 355.042 46.568C357.058 44.552 360.162 43.544 364.354 43.544H379.426C386.658 43.544 390.674 46.744 391.474 53.144C391.602 53.976 391.426 54.632 390.946 55.112C390.498 55.56 389.858 55.784 389.026 55.784C388.226 55.784 387.618 55.576 387.202 55.16C386.818 54.744 386.546 54.136 386.386 53.336C386.162 51.544 385.506 50.312 384.418 49.64C383.362 48.936 381.698 48.584 379.426 48.584H364.354C361.57 48.584 359.65 49.096 358.594 50.12C357.57 51.144 357.058 53.08 357.058 55.928C357.058 58.648 357.586 60.536 358.642 61.592C359.698 62.616 361.602 63.128 364.354 63.128H379.906C384.322 63.128 387.57 64.184 389.65 66.296C391.73 68.376 392.77 71.624 392.77 76.04C392.77 80.424 391.73 83.672 389.65 85.784C387.57 87.864 384.322 88.904 379.906 88.904H364.162Z" fill="white"/>
<path d="M503.588 83.6375L487.463 59.45C487.463 59.45 487.463 59.45 487.194 59.45C486.925 58.9125 486.119 58.375 485.313 58.375C484.506 58.375 483.7 58.9125 483.163 59.45C483.163 59.45 483.163 59.45 482.894 59.45L466.769 83.6375C465.963 84.9812 466.231 86.5937 467.575 87.4C468.919 88.2062 470.531 87.9375 471.338 86.5938L482.625 69.6625V90.625C482.625 92.2375 483.7 93.3125 485.313 93.3125C486.925 93.3125 488 92.2375 488 90.625V69.9312L499.288 86.8625C499.825 87.6688 500.631 87.9375 501.438 87.9375C501.975 87.9375 502.513 87.6687 503.05 87.4C504.125 86.5937 504.394 84.9812 503.588 83.6375Z" fill="white"/>
<path d="M502.513 50.0438C502.244 50.0438 501.706 50.0438 501.438 49.775C500.9 49.5063 500.363 48.9688 500.094 48.4313L492.3 29.0813C491.763 27.7375 492.3 26.125 493.913 25.5875L518.1 15.9125C519.444 15.375 521.056 15.9125 521.594 17.525L529.388 36.875C529.925 38.2188 529.388 39.8313 527.775 40.3688L503.588 50.0438C503.05 49.775 502.781 50.0438 502.513 50.0438Z" fill="white"/>
<path d="M485.312 63.75C479.4 63.75 474.562 58.9125 474.562 53C474.562 47.0875 479.4 42.25 485.312 42.25C491.225 42.25 496.062 47.0875 496.062 53C496.062 58.9125 491.225 63.75 485.312 63.75Z" fill="white"/>
<path d="M469.187 53C469.187 44.1313 476.444 36.875 485.312 36.875C486.925 36.875 488.269 37.1438 489.881 37.4125L487.194 30.9625L462.737 40.6375C461.931 41.175 461.662 41.7125 461.125 42.25C461.125 42.7875 461.125 43.5938 461.125 44.1313L447.419 49.5063C446.075 50.0438 445.269 51.6563 445.806 53L449.569 62.675C449.837 63.2125 450.375 63.75 450.912 64.0188C451.181 64.2875 451.719 64.2875 451.987 64.2875C452.256 64.2875 452.794 64.2875 453.062 64.0188L466.769 58.6438C467.306 59.1813 468.112 59.7188 468.919 59.7188C469.187 59.7188 469.456 59.7188 469.994 59.45H470.262C469.725 57.3 469.187 55.15 469.187 53Z" fill="white"/>
</svg>
