<svg width="286" height="286" viewBox="0 0 286 286" fill="none" xmlns="http://www.w3.org/2000/svg">
<g clip-path="url(#clip0_3_153)">
<path d="M143.08 143.809C135.804 144.532 69.4248 150.311 66.8539 124.438C62.9977 85.6293 92.9334 49.9947 133.359 45.9778C173.785 41.9609 210.148 71.0078 214.085 110.625C216.575 135.689 150.357 143.085 143.08 143.809Z" fill="#2C394B"/>
<path d="M147.805 195.485L250.895 351.577L64.1709 362.809L147.805 195.485Z" fill="#FF4C29"/>
<path d="M228.402 98.588C229.532 101.742 229.934 105.784 230.255 109.018C234.031 147.019 172.257 158.056 144.768 160.787C117.278 163.519 54.54 164.854 50.7641 126.853C50.4427 123.619 50.0411 119.577 50.5282 116.262C25.7804 130.152 12.8338 147.769 14.6816 166.365C18.1361 201.131 77.4639 222.997 150.231 215.767C222.997 208.536 276.862 175.423 273.327 139.848C271.56 122.061 255.4 107.336 228.402 98.588ZM163.991 189.904L131.65 193.118C126.799 193.6 123.244 190.687 122.761 185.836C122.279 180.985 125.192 177.43 130.043 176.947L162.384 173.734C167.235 173.252 170.791 176.165 171.273 181.016C171.755 185.867 168.842 189.422 163.991 189.904Z" fill="#082032"/>
</g>
<defs>
<clipPath id="clip0_3_153">
<rect width="260" height="260" fill="white" transform="translate(0.782959 26.4911) rotate(-5.67455)"/>
</clipPath>
</defs>
</svg>
