<svg width="475" height="347" viewBox="0 0 475 347" fill="none" xmlns="http://www.w3.org/2000/svg">
<path d="M229.488 31C160.944 31 105 86.944 105 155.488C105 224.032 160.944 279.976 229.488 279.976C298.032 279.976 353.976 224.032 353.976 155.488C353.976 86.944 298.032 31 229.488 31ZM139.776 155.488C139.776 129.784 150.864 106.096 168.504 89.968C175.56 83.416 187.656 85.432 192.696 94L223.944 147.928C226.968 152.968 226.968 159.016 223.944 164.056L192.696 217.984C187.656 227.056 175.56 228.568 168 221.512C150.864 204.376 139.776 181.192 139.776 155.488ZM266.28 216.976L235.032 163.048C232.008 158.008 232.008 151.96 235.032 146.92L266.28 92.992C271.32 84.424 282.912 82.408 290.472 88.96C308.112 105.088 319.2 128.776 319.2 154.48C319.2 180.184 308.112 203.872 290.472 220C282.912 228.064 271.32 226.048 266.28 216.976Z" fill="#FF4C29"/>
<circle cx="417" cy="104" r="46" fill="#EEEEEE"/>
<path d="M311.111 60.0867C378.108 34.6191 429.879 29.2384 442.025 50.2768C460.237 81.82 382.48 160.807 268.351 226.7C154.222 292.592 46.9383 320.438 28.7268 288.895C16.4216 267.582 47.9302 224.608 104.869 178.649" stroke="#EEEEEE" stroke-width="10"/>
</svg>
