<svg width="231" height="230" xmlns="http://www.w3.org/2000/svg" xmlns:xlink="http://www.w3.org/1999/xlink" overflow="hidden"><defs><clipPath id="clip0"><rect x="601" y="168" width="231" height="230"/></clipPath><clipPath id="clip1"><rect x="602" y="168" width="230" height="230"/></clipPath><clipPath id="clip2"><rect x="602" y="168" width="230" height="230"/></clipPath><clipPath id="clip3"><rect x="602" y="168" width="230" height="230"/></clipPath></defs><g clip-path="url(#clip0)" transform="translate(-601 -168)"><g clip-path="url(#clip1)"><g clip-path="url(#clip2)"><g clip-path="url(#clip3)"><path d="M653.447 237.605 695.816 237.605 695.816 249.711 704.895 249.711 704.895 258.789 713.974 258.789 713.974 267.868 720.026 267.868 720.026 258.789 729.105 258.789 729.105 249.711 738.184 249.711 738.184 237.605 780.553 237.605 780.553 249.711 771.474 249.711 771.474 258.789 762.395 258.789 762.395 267.868 753.316 267.868 753.316 276.947 744.237 276.947 744.237 289.053 753.316 289.053 753.316 298.132 762.395 298.132 762.395 307.211 771.474 307.211 771.474 316.289 780.553 316.289 780.553 328.395 738.184 328.395 738.184 316.289 729.105 316.289 729.105 307.211 720.026 307.211 720.026 298.132 713.974 298.132 713.974 307.211 704.895 307.211 704.895 316.289 695.816 316.289 695.816 328.395 653.447 328.395 653.447 316.289 662.526 316.289 662.526 307.211 671.605 307.211 671.605 298.132 680.684 298.132 680.684 289.053 689.763 289.053 689.763 276.947 680.684 276.947 680.684 267.868 671.605 267.868 671.605 258.789 662.526 258.789 662.526 249.711 653.447 249.711 653.447 237.605Z" fill="#FFFFFF" fill-rule="nonzero" fill-opacity="1"/></g></g></g></g></svg>