<svg width="249" height="249" viewBox="0 0 249 249" fill="none" xmlns="http://www.w3.org/2000/svg">
<path d="M124.488 0C55.944 0 0 55.944 0 124.488C0 193.032 55.944 248.976 124.488 248.976C193.032 248.976 248.976 193.032 248.976 124.488C248.976 55.944 193.032 0 124.488 0ZM34.776 124.488C34.776 98.784 45.864 75.096 63.504 58.968C70.56 52.416 82.656 54.432 87.696 63L118.944 116.928C121.968 121.968 121.968 128.016 118.944 133.056L87.696 186.984C82.656 196.056 70.56 197.568 63 190.512C45.864 173.376 34.776 150.192 34.776 124.488ZM161.28 185.976L130.032 132.048C127.008 127.008 127.008 120.96 130.032 115.92L161.28 61.992C166.32 53.424 177.912 51.408 185.472 57.96C203.112 74.088 214.2 97.776 214.2 123.48C214.2 149.184 203.112 172.872 185.472 189C177.912 197.064 166.32 195.048 161.28 185.976Z" fill="#FF4C29"/>
</svg>
