<svg width="270" height="272" viewBox="0 0 270 272" fill="none" xmlns="http://www.w3.org/2000/svg">
<path d="M126.34 173C130.189 166.333 139.811 166.333 143.66 173L175.703 228.5C179.552 235.167 174.741 243.5 167.043 243.5H102.957C95.2591 243.5 90.4478 235.167 94.2968 228.5L126.34 173Z" fill="#FF4C29"/>
<path d="M166.906 49.3634C174.604 49.3634 179.416 57.6968 175.567 64.3634L143.524 119.863C139.675 126.53 130.052 126.53 126.203 119.863L94.1603 64.3635C90.3113 57.6968 95.1225 49.3634 102.821 49.3634L166.906 49.3634Z" fill="#FF4C29"/>
<path d="M109.906 151.09C117.604 151.09 122.416 159.424 118.567 166.09L86.5237 221.59C82.6747 228.257 73.0522 228.257 69.2032 221.59L37.1603 166.09C33.3113 159.424 38.1225 151.09 45.8205 151.09L109.906 151.09Z" fill="#FF4C29"/>
<path d="M45.8205 142.363C38.1225 142.363 33.3113 134.03 37.1603 127.363L69.2032 71.8635C73.0522 65.1968 82.6747 65.1968 86.5237 71.8634L118.567 127.363C122.416 134.03 117.604 142.363 109.906 142.363L45.8205 142.363Z" fill="#FF4C29"/>
<path d="M159.821 140.363C152.123 140.363 147.311 132.03 151.16 125.363L183.203 69.8635C187.052 63.1968 196.675 63.1968 200.524 69.8634L232.567 125.363C236.416 132.03 231.604 140.363 223.906 140.363L159.821 140.363Z" fill="#FF4C29"/>
<path d="M223.907 150.363C231.605 150.363 236.416 158.697 232.567 165.363L200.524 220.863C196.675 227.53 187.052 227.53 183.203 220.863L151.16 165.363C147.311 158.697 152.123 150.363 159.821 150.363L223.907 150.363Z" fill="#FF4C29"/>
</svg>
