<svg width="174" height="174" viewBox="0 0 174 174" fill="none" xmlns="http://www.w3.org/2000/svg">
<path d="M89.7188 65.25L128.645 26.3234" stroke="#334756" stroke-width="2" stroke-linecap="square"/>
<path fill-rule="evenodd" clip-rule="evenodd" d="M49.6533 16.3127C25.2334 40.7327 25.2334 80.3253 49.6533 104.745C74.0733 129.165 113.666 129.165 138.086 104.745L49.6533 16.3127Z" fill="#082032"/>
<path fill-rule="evenodd" clip-rule="evenodd" d="M43.5 104.649C43.5 100.908 46.5169 97.875 50.2969 97.875C54.0507 97.875 57.0938 100.945 57.0938 104.649V154.969H43.5V104.649Z" fill="#2C394B"/>
<path d="M50.2969 111.469C52.5492 111.469 54.375 109.643 54.375 107.391C54.375 105.138 52.5492 103.312 50.2969 103.312C48.0446 103.312 46.2188 105.138 46.2188 107.391C46.2188 109.643 48.0446 111.469 50.2969 111.469Z" fill="#D8D8D8"/>
<path fill-rule="evenodd" clip-rule="evenodd" d="M32.625 154.969H67.9688L76.125 171.281H24.4688L32.625 154.969Z" fill="#082032"/>
<path d="M130.5 35.3438C136.506 35.3438 141.375 30.4748 141.375 24.4688C141.375 18.4627 136.506 13.5938 130.5 13.5938C124.494 13.5938 119.625 18.4627 119.625 24.4688C119.625 30.4748 124.494 35.3438 130.5 35.3438Z" fill="#FF4C29"/>
</svg>
